HIERARCHY
ROOT Hips
{
	OFFSET 0.000000 103.266502 0.000000
	CHANNELS 6 Xposition Yposition Zposition Xrotation Yrotation Zrotation 
	JOINT Spine
	{
		OFFSET -0.002400 12.777504 0.315300
		CHANNELS 3 Xrotation Yrotation Zrotation
		JOINT Spine1
		{
			OFFSET -0.002067 5.816869 0.032633
			CHANNELS 3 Xrotation Yrotation Zrotation
			JOINT Spine1_split
			{
				OFFSET -0.002067 5.816869 0.032633
				CHANNELS 3 Xrotation Yrotation Zrotation
				JOINT Spine2
				{
					OFFSET -0.002067 5.816869 0.032633
					CHANNELS 3 Xrotation Yrotation Zrotation
					JOINT Neck
					{
						OFFSET -0.003700 21.199493 -0.826900
						CHANNELS 3 Xrotation Yrotation Zrotation
						JOINT Head
						{
							OFFSET 0.000000 20.442200 4.834800
							CHANNELS 3 Xrotation Yrotation Zrotation
							JOINT HeadTop_End
							{
								OFFSET 0.000000 34.668396 4.968400
								CHANNELS 3 Xrotation Yrotation Zrotation
								End Site
								{
									OFFSET 0.000000 0.000000 0.000000
								}
							}
						}
					}
					JOINT LeftShoulder
					{
						OFFSET 3.288150 8.794197 -1.372250
						CHANNELS 3 Xrotation Yrotation Zrotation
						JOINT LeftShoulder_split
						{
							OFFSET 3.288150 8.794197 -1.372250
							CHANNELS 3 Xrotation Yrotation Zrotation
							JOINT LeftArm
							{
								OFFSET 11.953299 -2.279007 -0.146200
								CHANNELS 3 Xrotation Yrotation Zrotation
								JOINT LeftForeArm
								{
									OFFSET 18.448900 0.000000 0.000000
									CHANNELS 3 Xrotation Yrotation Zrotation
									JOINT LeftHand
									{
										OFFSET 29.527798 0.000000 0.000000
										CHANNELS 3 Xrotation Yrotation Zrotation
										JOINT LeftHandThumb1
										{
											OFFSET 10.739754 -2.369614 9.225399
											CHANNELS 3 Xrotation Yrotation Zrotation
											JOINT LeftHandThumb2
											{
												OFFSET 4.926170 -2.844131 2.844125
												CHANNELS 3 Xrotation Yrotation Zrotation
												JOINT LeftHandThumb3
												{
													OFFSET 4.614891 -2.664413 2.664409
													CHANNELS 3 Xrotation Yrotation Zrotation
													JOINT LeftHandThumb4
													{
														OFFSET 4.432465 -2.559082 2.559083
														CHANNELS 3 Xrotation Yrotation Zrotation
														End Site
														{
															OFFSET 0.000000 0.000000 0.000000
														}
													}
												}
											}
										}
										JOINT LeftHandIndex1
										{
											OFFSET 26.467674 0.187653 6.405298
											CHANNELS 3 Xrotation Yrotation Zrotation
											JOINT LeftHandIndex2
											{
												OFFSET 8.792900 0.000000 0.000000
												CHANNELS 3 Xrotation Yrotation Zrotation
												JOINT LeftHandIndex3
												{
													OFFSET 10.075203 0.000000 0.000000
													CHANNELS 3 Xrotation Yrotation Zrotation
													End Site
													{
														OFFSET 0.000000 0.000000 0.000000
													}
												}
											}
										}
										JOINT LeftHandMiddle1
										{
											OFFSET 25.764404 0.000000 0.000000
											CHANNELS 3 Xrotation Yrotation Zrotation
											JOINT LeftHandMiddle2
											{
												OFFSET 9.393974 0.000000 0.000000
												CHANNELS 3 Xrotation Yrotation Zrotation
												JOINT LeftHandMiddle3
												{
													OFFSET 10.771950 0.000000 0.000000
													CHANNELS 3 Xrotation Yrotation Zrotation
													End Site
													{
														OFFSET 0.000000 0.000000 0.000000
													}
												}
											}
										}
										JOINT LeftHandRing1
										{
											OFFSET 24.660927 0.144547 -6.225808
											CHANNELS 3 Xrotation Yrotation Zrotation
											JOINT LeftHandRing2
											{
												OFFSET 9.393799 0.000000 0.000000
												CHANNELS 3 Xrotation Yrotation Zrotation
												JOINT LeftHandRing3
												{
													OFFSET 9.928497 0.000000 0.000000
													CHANNELS 3 Xrotation Yrotation Zrotation
													End Site
													{
														OFFSET 0.000000 0.000000 0.000000
													}
												}
											}
										}
										JOINT LeftHandPinky1
										{
											OFFSET 23.655350 0.125290 -12.815412
											CHANNELS 3 Xrotation Yrotation Zrotation
											JOINT LeftHandPinky2
											{
												OFFSET 8.425102 0.000000 0.000000
												CHANNELS 3 Xrotation Yrotation Zrotation
												JOINT LeftHandPinky3
												{
													OFFSET 8.147003 0.000000 0.000000
													CHANNELS 3 Xrotation Yrotation Zrotation
													End Site
													{
														OFFSET 0.000000 0.000000 0.000000
													}
												}
											}
										}
									}
								}
							}
						}
					}
					JOINT RightShoulder
					{
						OFFSET -3.249400 8.794197 -1.372250
						CHANNELS 3 Xrotation Yrotation Zrotation
						JOINT RightShoulder_split
						{
							OFFSET -3.249400 8.794197 -1.372250
							CHANNELS 3 Xrotation Yrotation Zrotation
							JOINT RightArm
							{
								OFFSET -11.953299 -2.279007 -0.146200
								CHANNELS 3 Xrotation Yrotation Zrotation
								JOINT RightForeArm
								{
									OFFSET -18.448900 0.000000 0.000000
									CHANNELS 3 Xrotation Yrotation Zrotation
									JOINT RightHand
									{
										OFFSET -29.527802 0.000000 0.000000
										CHANNELS 3 Xrotation Yrotation Zrotation
										JOINT RightHandThumb1
										{
											OFFSET -10.739754 -2.369614 9.225399
											CHANNELS 3 Xrotation Yrotation Zrotation
											JOINT RightHandThumb2
											{
												OFFSET -4.926170 -2.844131 2.844125
												CHANNELS 3 Xrotation Yrotation Zrotation
												JOINT RightHandThumb3
												{
													OFFSET -4.614891 -2.664413 2.664409
													CHANNELS 3 Xrotation Yrotation Zrotation
													JOINT RightHandThumb4
													{
														OFFSET -4.432465 -2.559082 2.559083
														CHANNELS 3 Xrotation Yrotation Zrotation
														End Site
														{
															OFFSET 0.000000 0.000000 0.000000
														}
													}
												}
											}
										}
										JOINT RightHandIndex1
										{
											OFFSET -26.467674 0.187653 6.405298
											CHANNELS 3 Xrotation Yrotation Zrotation
											JOINT RightHandIndex2
											{
												OFFSET -8.792900 0.000000 0.000000
												CHANNELS 3 Xrotation Yrotation Zrotation
												JOINT RightHandIndex3
												{
													OFFSET -10.075203 0.000000 0.000000
													CHANNELS 3 Xrotation Yrotation Zrotation
													End Site
													{
														OFFSET 0.000000 0.000000 0.000000
													}
												}
											}
										}
										JOINT RightHandMiddle1
										{
											OFFSET -25.764404 0.000000 0.000000
											CHANNELS 3 Xrotation Yrotation Zrotation
											JOINT RightHandMiddle2
											{
												OFFSET -9.393974 0.000000 0.000000
												CHANNELS 3 Xrotation Yrotation Zrotation
												JOINT RightHandMiddle3
												{
													OFFSET -10.771950 0.000000 0.000000
													CHANNELS 3 Xrotation Yrotation Zrotation
													End Site
													{
														OFFSET 0.000000 0.000000 0.000000
													}
												}
											}
										}
										JOINT RightHandRing1
										{
											OFFSET -24.660927 0.144547 -6.225808
											CHANNELS 3 Xrotation Yrotation Zrotation
											JOINT RightHandRing2
											{
												OFFSET -9.393799 0.000000 0.000000
												CHANNELS 3 Xrotation Yrotation Zrotation
												JOINT RightHandRing3
												{
													OFFSET -9.928497 0.000000 0.000000
													CHANNELS 3 Xrotation Yrotation Zrotation
													End Site
													{
														OFFSET 0.000000 0.000000 0.000000
													}
												}
											}
										}
										JOINT RightHandPinky1
										{
											OFFSET -23.655350 0.125290 -12.815412
											CHANNELS 3 Xrotation Yrotation Zrotation
											JOINT RightHandPinky2
											{
												OFFSET -8.425102 0.000000 0.000000
												CHANNELS 3 Xrotation Yrotation Zrotation
												JOINT RightHandPinky3
												{
													OFFSET -8.147003 0.000000 0.000000
													CHANNELS 3 Xrotation Yrotation Zrotation
													End Site
													{
														OFFSET 0.000000 0.000000 0.000000
													}
												}
											}
										}
									}
								}
							}
						}
					}
				}
			}
		}
	}
	JOINT LeftUpLeg
	{
		OFFSET 11.394100 -6.187798 -0.413800
		CHANNELS 3 Xrotation Yrotation Zrotation
		JOINT LeftLeg
		{
			OFFSET 0.430247 -32.302673 3.732800
			CHANNELS 3 Xrotation Yrotation Zrotation
			JOINT LeftFoot
			{
				OFFSET -0.430247 -48.264931 -6.423300
				CHANNELS 3 Xrotation Yrotation Zrotation
				JOINT LeftToeBase
				{
					OFFSET 4.230900 -16.068199 23.438400
					CHANNELS 3 Xrotation Yrotation Zrotation
					JOINT LeftToe_End
					{
						OFFSET 4.510700 0.695400 19.974600
						CHANNELS 3 Xrotation Yrotation Zrotation
						End Site
						{
							OFFSET 0.000000 0.000000 0.000000
						}
					}
				}
			}
		}
	}
	JOINT RightUpLeg
	{
		OFFSET -11.333700 -6.187798 -0.413800
		CHANNELS 3 Xrotation Yrotation Zrotation
		JOINT RightLeg
		{
			OFFSET -0.430392 -32.302628 3.733000
			CHANNELS 3 Xrotation Yrotation Zrotation
			JOINT RightFoot
			{
				OFFSET 0.430392 -48.264973 -6.423500
				CHANNELS 3 Xrotation Yrotation Zrotation
				JOINT RightToeBase
				{
					OFFSET -4.230900 -16.068199 23.438400
					CHANNELS 3 Xrotation Yrotation Zrotation
					JOINT RightToe_End
					{
						OFFSET -4.510700 0.695400 19.974600
						CHANNELS 3 Xrotation Yrotation Zrotation
						End Site
						{
							OFFSET 0.000000 0.000000 0.000000
						}
					}
				}
			}
		}
	}
}
MOTION
Frames: 4
Frame Time: 0.016667
0.074198 81.121696 3.037403 26.336894 -23.127622 8.842049 14.949513 2.577820 -0.883660 8.954939 1.454247 -0.667650 0.000000 0.000000 0.000000 8.929225 1.567215 -0.769621 -7.642841 3.429842 -7.508564 -43.074776 9.987861 7.921035 0.000000 -0.000000 0.000000 3.858304 -6.469473 9.422127 0.000000 0.000000 0.000000 -49.881063 5.784868 -65.370935 0.013784 -89.198439 0.013801 6.361829 1.183439 20.596048 -17.636580 -15.237870 2.797085 5.947427 34.911662 2.502029 0.571377 15.024043 3.781411 0.000001 -0.000004 0.000000 0.388071 -2.283062 19.290713 0.587314 2.787373 -23.793321 0.000002 0.000000 -0.000000 0.388697 -2.284894 19.306734 0.588105 2.789112 -23.809334 0.000002 0.000000 -0.000000 0.388067 -2.283061 19.290717 0.587318 2.787372 -23.793323 -0.000004 0.000000 -0.000000 -0.967833 1.537871 19.792322 0.593526 -1.272001 -24.261667 -0.000001 -0.000000 0.000000 3.960222 12.222857 4.273393 0.000000 0.000000 0.000000 -38.946907 11.840056 48.020840 -179.999144 86.265112 179.999090 19.436160 10.205509 7.992474 30.641417 13.211237 -0.281795 7.057604 -37.365875 -1.833677 -0.060065 -14.189609 -3.533742 -0.000001 0.000000 -0.000000 0.155611 1.465715 -12.119890 0.379777 -2.270648 18.987420 -0.000003 0.000002 0.000000 0.155616 1.465710 -12.119905 0.379770 -2.270647 18.987443 0.000001 -0.000000 0.000001 0.155612 1.465714 -12.119892 0.379780 -2.270648 18.987426 0.000001 -0.000000 0.000000 0.155610 1.465715 -12.119892 0.379784 -2.270648 18.987422 -0.000004 0.000000 0.000002 -81.759400 -3.936618 21.981572 59.095801 0.446369 5.106932 1.237828 0.493967 -18.430591 -0.000014 0.000001 0.000020 0.000000 0.000000 0.000000 -77.987496 -2.912930 -21.516663 63.894070 -2.207616 -7.788397 -7.253195 -1.985536 16.744649 -7.630232 0.000002 -0.000001 -0.000001 0.000000 -0.000000 
0.056825 81.217278 3.119579 26.462400 -23.192413 8.892176 14.957032 2.446532 -0.919015 8.942646 1.377979 -0.669283 0.000000 0.000000 0.000000 8.917263 1.494832 -0.768342 -7.594609 3.504781 -7.365768 -43.161311 10.368543 7.992465 0.000000 -0.000000 0.000000 3.797582 -6.379666 8.897880 0.000000 0.000000 0.000000 -49.025069 5.833142 -65.558587 0.151331 -90.335631 0.151456 6.494224 1.888097 21.591256 -17.777604 -15.392979 2.760410 5.958629 35.079930 2.510943 0.577790 15.107960 3.788490 -0.000001 -0.000001 -0.000001 0.392782 -2.296496 19.408860 0.610792 2.839931 -24.271492 -0.000000 -0.000001 -0.000001 0.393411 -2.298325 19.424867 0.611603 2.841714 -24.287504 -0.000003 0.000000 -0.000000 0.392780 -2.296495 19.408860 0.610796 2.839931 -24.271492 0.000001 -0.000000 -0.000001 -0.970980 1.521643 19.910044 0.617407 -1.219613 -24.738155 -0.000005 0.000000 0.000000 3.972531 12.168643 4.140062 0.000000 0.000000 0.000000 -38.744450 11.705562 49.039966 -179.998666 84.927993 179.998680 22.139735 11.186729 7.333663 30.626445 13.316681 -0.202570 7.068276 -37.497786 -1.838801 -0.055205 -14.255383 -3.539794 -0.000000 0.000001 0.000001 0.168394 1.523984 -12.609643 0.421759 -2.389071 20.020292 0.000003 0.000000 0.000001 0.168392 1.523993 -12.609635 0.421755 -2.389082 20.020300 -0.000003 -0.000000 -0.000001 0.168391 1.523984 -12.609643 0.421757 -2.389072 20.020294 0.000004 0.000001 0.000002 0.168392 1.523985 -12.609643 0.421761 -2.389072 20.020292 0.000000 0.000000 0.000002 -81.676693 -3.865103 22.023914 58.991873 0.407786 5.129916 1.132664 0.504828 -18.460738 -0.000039 -0.000002 0.000065 0.000000 -0.000000 0.000000 -77.907091 -3.031554 -21.405941 63.697859 -2.306525 -7.912186 -7.305572 -1.845960 16.712394 -7.665205 -0.000006 -0.000004 -0.000001 -0.000001 -0.000000 
0.026832 81.280029 3.180584 26.609521 -23.273086 8.959689 14.962883 2.302065 -0.934944 8.932682 1.291006 -0.662406 0.000000 0.000000 0.000000 8.908017 1.411640 -0.757966 -7.575330 3.601987 -7.236719 -43.266670 10.835727 8.058437 -0.000000 -0.000000 -0.000000 3.730450 -6.286349 8.218745 0.000000 0.000000 0.000000 -48.220220 5.755344 -65.566585 -0.000986 -91.419487 -0.001113 6.568280 2.351830 22.524200 -17.920168 -15.550485 2.725537 5.969999 35.250497 2.519964 0.584297 15.193034 3.795660 -0.000001 -0.000004 0.000000 0.397601 -2.310098 19.528568 0.616498 2.852528 -24.386243 0.000001 0.000000 0.000000 0.398238 -2.311925 19.544576 0.617307 2.854291 -24.402268 0.000003 0.000001 -0.000000 0.397600 -2.310097 19.528566 0.616503 2.852528 -24.386248 -0.000001 -0.000000 0.000000 -0.974117 1.505210 20.029364 0.623204 -1.207084 -24.852518 0.000000 -0.000001 -0.000000 3.981622 12.107281 3.979453 0.000000 0.000000 0.000000 -38.415842 11.620502 49.978762 -179.999868 83.383482 179.999882 23.882035 11.595323 6.699893 30.612884 13.427150 -0.120942 7.079092 -37.631450 -1.843968 -0.050287 -14.322040 -3.545924 0.000000 0.000001 0.000001 0.181672 1.582212 -13.100021 0.465947 -2.506937 21.054748 -0.000001 -0.000002 -0.000001 0.181678 1.582207 -13.100025 0.465944 -2.506940 21.054755 0.000003 -0.000002 0.000001 0.181673 1.582211 -13.100021 0.465949 -2.506937 21.054750 0.000002 -0.000001 0.000001 0.181674 1.582211 -13.100021 0.465948 -2.506937 21.054748 0.000002 0.000001 0.000004 -81.639243 -3.837760 22.073423 58.928352 0.396500 5.158395 1.036257 0.516642 -18.524566 0.000000 -0.000003 0.000004 0.000000 0.000000 0.000000 -77.903642 -3.115693 -21.262007 63.578351 -2.285744 -8.013607 -7.351029 -1.844069 16.670362 -7.690675 0.000014 -0.000008 -0.000001 -0.000002 -0.000000 
-0.016992 81.312050 3.222008 26.776782 -23.365003 9.047166 14.971479 2.155133 -0.929036 8.925396 1.196949 -0.646767 0.000000 0.000000 0.000000 8.901931 1.320518 -0.738013 -7.587596 3.716971 -7.129054 -43.384989 11.376620 8.087228 -0.000000 0.000000 -0.000000 3.660239 -6.192010 7.427267 0.000000 0.000000 0.000000 -47.464026 5.638786 -65.420959 0.001215 -92.434057 0.001193 6.579945 2.602524 23.316927 -18.073925 -15.721292 2.690568 5.981492 35.423431 2.529108 0.590874 15.279290 3.802906 -0.000001 -0.000004 0.000003 0.402498 -2.323875 19.649981 0.622303 2.865289 -24.502614 -0.000000 -0.000000 -0.000000 0.403152 -2.325690 19.665990 0.623116 2.867044 -24.518637 0.000000 -0.000000 -0.000001 0.402497 -2.323875 19.649981 0.622306 2.865289 -24.502616 0.000003 -0.000000 0.000000 -0.977284 1.488493 20.150327 0.629111 -1.194357 -24.968475 -0.000002 0.000000 0.000001 3.982096 12.033535 3.810700 0.000000 0.000000 0.000000 -38.063278 11.622219 50.879619 -179.999991 81.797963 180.000019 24.991830 11.467081 6.028763 30.609438 13.454884 -0.100486 7.090064 -37.767015 -1.849186 -0.045304 -14.389646 -3.552136 -0.000000 -0.000001 -0.000000 0.195489 1.640399 -13.591120 0.512328 -2.624126 22.090894 -0.000001 0.000000 -0.000001 0.195491 1.640400 -13.591119 0.512329 -2.624130 22.090893 -0.000001 0.000001 0.000002 0.195487 1.640399 -13.591121 0.512325 -2.624127 22.090894 -0.000001 -0.000000 0.000001 0.195490 1.640400 -13.591119 0.512329 -2.624127 22.090894 0.000000 0.000001 0.000002 -81.642522 -3.843106 22.126097 58.897206 0.407483 5.195541 0.948890 0.528784 -18.613673 -0.000041 0.000001 0.000044 -0.000000 -0.000000 0.000000 -77.970701 -3.162636 -21.089623 63.521039 -2.279480 -8.121500 -7.398172 -1.848054 16.646498 -7.701619 -0.000004 -0.000001 0.000000 -0.000001 -0.000000 
